<?xml version="1.0" encoding="utf-8"?>
<svg id="master-artboard" viewBox="0 0 363.8559875488281 168.40281677246094" version="1.1" xmlns="http://www.w3.org/2000/svg" x="0px" y="0px" style="enable-background:new 0 0 336 235.2;" width="363.8559875488281px" height="168.40281677246094px"><rect id="ee-background" x="0" y="0" width="363.8559875488281" height="168.40281677246094" style="fill: white; fill-opacity: 0; pointer-events: none;"/><defs><style id="ee-google-fonts">@import url(https://fonts.googleapis.com/css?family=Aladin:400);</style></defs><path d="M 123.67446899414062 372.861328125 L 123.69446563720703 375.861328125 L 123.6044692993164 380.0113220214844 C 123.61780548095703 380.0779724121094 123.6411361694336 380.111328125 123.67446899414062 380.111328125 C 123.70780181884766 380.111328125 123.73113250732422 380.0946350097656 123.74446868896484 380.0613098144531 C 124.06446838378906 379.6146545410156 124.46113586425781 379.3913269042969 124.9344711303711 379.3913269042969 C 125.40779876708984 379.3913269042969 125.64447021484375 379.48797607421875 125.64447021484375 379.6813049316406 C 125.64447021484375 380.2879943847656 125.75780487060547 380.754638671875 125.98446655273438 381.0813293457031 C 126.21780395507812 381.4079895019531 126.54780578613281 381.5713195800781 126.97447204589844 381.5713195800781 C 127.39447021484375 381.5713195800781 127.80113220214844 381.2846374511719 128.19447326660156 380.7113037109375 C 128.58779907226562 380.1313171386719 128.7844696044922 379.361328125 128.7844696044922 378.40130615234375 C 128.7844696044922 378.0813293457031 128.72113037109375 377.697998046875 128.59446716308594 377.2513122558594 C 128.33447265625 376.35797119140625 127.8544692993164 375.75799560546875 127.15447235107422 375.4513244628906 C 126.6411361694336 375.2446594238281 125.80780029296875 375.1413269042969 124.65447235107422 375.1413269042969 C 124.52780151367188 375.1413269042969 124.46446990966797 375.0546569824219 124.46446990966797 374.8813171386719 C 124.46446990966797 373.9813232421875 124.62446594238281 373.5146484375 124.94446563720703 373.4813232421875 C 125.37779998779297 373.4813232421875 125.83447265625 373.3713073730469 126.31446838378906 373.15130615234375 C 127.27446746826172 372.70465087890625 127.75447082519531 371.7846374511719 127.75447082519531 370.3913269042969 C 127.75447082519531 368.8846435546875 126.8911361694336 368.1313171386719 125.16446685791016 368.1313171386719 L 124.41446685791016 368.1813049316406 C 124.12779998779297 368.24798583984375 123.96780395507812 368.36798095703125 123.9344711303711 368.54132080078125 L 123.9344711303711 368.611328125 C 123.76113891601562 369.2513122558594 123.67446899414062 370.66796875 123.67446899414062 372.861328125 M 120.14447021484375 384.0013122558594 L 120.19446563720703 383.7313232421875 C 120.3544692993164 383.44464111328125 120.49113464355469 382.274658203125 120.6044692993164 380.2213134765625 C 120.71113586425781 378.16131591796875 120.76446533203125 376.2413024902344 120.76446533203125 374.4613037109375 C 120.76446533203125 372.6746520996094 120.73113250732422 371.2413024902344 120.66446685791016 370.16131591796875 C 120.59113311767578 369.0813293457031 120.39447021484375 368.30133056640625 120.07447052001953 367.8213195800781 C 120.00780487060547 367.7413024902344 119.97447204589844 367.6446533203125 119.97447204589844 367.53131103515625 C 119.97447204589844 367.41796875 120.07113647460938 367.3213195800781 120.26446533203125 367.2413024902344 C 121.57780456542969 366.7346496582031 123.36113739013672 366.4813232421875 125.61447143554688 366.4813232421875 C 126.17446899414062 366.4813232421875 126.78446960449219 366.5546569824219 127.44447326660156 366.7013244628906 C 128.09780883789062 366.8546447753906 128.63780212402344 367.0446472167969 129.06446838378906 367.27130126953125 C 129.48446655273438 367.4913024902344 129.8677978515625 367.83465576171875 130.21446228027344 368.30133056640625 C 130.55447387695312 368.7679748535156 130.75112915039062 369.3213195800781 130.80447387695312 369.9613037109375 C 130.80447387695312 372.28131103515625 129.84446716308594 373.6146545410156 127.92446899414062 373.9613037109375 C 127.82447052001953 373.9946594238281 127.77446746826172 374.03131103515625 127.77446746826172 374.0713195800781 C 127.77446746826172 374.111328125 127.81446838378906 374.1546630859375 127.89447021484375 374.2013244628906 C 128.88780212402344 374.361328125 129.72113037109375 374.7613220214844 130.39447021484375 375.40130615234375 C 130.72779846191406 375.7079772949219 131.0311279296875 376.1813049316406 131.30447387695312 376.8213195800781 C 131.5778045654297 377.4613037109375 131.71446228027344 378.197998046875 131.71446228027344 379.03131103515625 C 131.71446228027344 380.1046447753906 131.40113830566406 381.1213073730469 130.77447509765625 382.0813293457031 C 130.26113891601562 382.861328125 129.51780700683594 383.42132568359375 128.54446411132812 383.7613220214844 C 127.997802734375 383.9479675292969 127.3911361694336 384.04132080078125 126.72447204589844 384.04132080078125 C 125.04447174072266 384.04132080078125 123.97779846191406 383.50799560546875 123.52446746826172 382.4413146972656 C 123.51113891601562 382.3879699707031 123.48780059814453 382.361328125 123.4544677734375 382.361328125 L 123.36447143554688 382.4613037109375 C 123.02446746826172 383.5813293457031 122.06446838378906 384.1646423339844 120.48446655273438 384.2113037109375 C 120.25780487060547 384.2113037109375 120.14447021484375 384.1413269042969 120.14447021484375 384.0013122558594 ZM 134.92784118652344 377.5613098144531 L 134.94784545898438 378.16131591796875 C 134.94784545898438 378.2613220214844 135.01451110839844 378.3113098144531 135.14784240722656 378.3113098144531 C 135.65451049804688 378.2646484375 136.10118103027344 378.1313171386719 136.4878387451172 377.91131591796875 C 136.87451171875 377.697998046875 137.1611785888672 377.45465087890625 137.34783935546875 377.1813049316406 C 137.73451232910156 376.5879821777344 137.9445037841797 376.07464599609375 137.97784423828125 375.6413269042969 L 137.9978485107422 375.361328125 C 137.9978485107422 374.4946594238281 137.65451049804688 374.0613098144531 136.96783447265625 374.0613098144531 C 136.4545135498047 374.0613098144531 136.037841796875 374.2846374511719 135.71783447265625 374.7313232421875 C 135.19117736816406 375.43798828125 134.92784118652344 376.3813171386719 134.92784118652344 377.5613098144531 M 140.1578369140625 380.7613220214844 C 140.1578369140625 381.36798095703125 140.03451538085938 381.8979797363281 139.787841796875 382.351318359375 C 139.54116821289062 382.8113098144531 139.26116943359375 383.1479797363281 138.94784545898438 383.361328125 C 138.63450622558594 383.57464599609375 138.27117919921875 383.74798583984375 137.8578338623047 383.8813171386719 C 137.3311767578125 384.04132080078125 136.8278350830078 384.1213073730469 136.34783935546875 384.1213073730469 C 135.0011749267578 384.1213073730469 134.00784301757812 383.6146545410156 133.3678436279297 382.601318359375 C 132.72784423828125 381.5946350097656 132.4078369140625 380.3113098144531 132.4078369140625 378.7513122558594 C 132.4078369140625 377.1913146972656 132.80450439453125 375.8046569824219 133.59783935546875 374.59130859375 C 134.39117431640625 373.3713073730469 135.5778350830078 372.7613220214844 137.1578369140625 372.7613220214844 C 138.59783935546875 372.7613220214844 139.5745086669922 373.2679748535156 140.0878448486328 374.28131103515625 C 140.2945098876953 374.66131591796875 140.39784240722656 375.024658203125 140.39784240722656 375.3713073730469 C 140.39784240722656 375.7113037109375 140.3811798095703 375.9813232421875 140.34783935546875 376.1813049316406 C 140.3211669921875 376.3813171386719 140.211181640625 376.6813049316406 140.01783752441406 377.0813293457031 C 139.8245086669922 377.4813232421875 139.56784057617188 377.84130859375 139.2478485107422 378.16131591796875 C 138.92784118652344 378.4813232421875 138.4245147705078 378.7879943847656 137.7378387451172 379.0813293457031 C 137.05117797851562 379.36798095703125 136.24118041992188 379.5579833984375 135.30784606933594 379.65130615234375 C 135.18116760253906 379.65130615234375 135.1178436279297 379.7079772949219 135.1178436279297 379.8213195800781 C 135.1178436279297 379.9679870605469 135.17117309570312 380.1813049316406 135.27784729003906 380.4613037109375 C 135.37783813476562 380.7413024902344 135.4945068359375 380.9746398925781 135.62783813476562 381.16131591796875 C 135.97450256347656 381.6146545410156 136.4945068359375 381.84130859375 137.18783569335938 381.84130859375 C 137.87451171875 381.84130859375 138.4578399658203 381.6146545410156 138.93783569335938 381.16131591796875 C 139.19117736816406 380.92132568359375 139.39784240722656 380.62799072265625 139.55784606933594 380.28131103515625 C 139.62451171875 380.1479797363281 139.7078399658203 380.0813293457031 139.80784606933594 380.0813293457031 C 139.9145050048828 380.0813293457031 140.0011749267578 380.17132568359375 140.06784057617188 380.351318359375 C 140.12783813476562 380.524658203125 140.1578369140625 380.66131591796875 140.1578369140625 380.7613220214844 ZM 143.94940185546875 370.8213195800781 L 143.37939453125 370.80133056640625 C 142.94606018066406 370.80133056640625 142.6660614013672 370.9046630859375 142.53939819335938 371.111328125 C 142.50607299804688 371.1579895019531 142.466064453125 371.1813049316406 142.41940307617188 371.1813049316406 C 142.20606994628906 371.1813049316406 142.09939575195312 370.82464599609375 142.09939575195312 370.111328125 C 142.09939575195312 369.3979797363281 142.2093963623047 368.947998046875 142.4293975830078 368.7613220214844 C 142.64273071289062 368.5679931640625 143.01939392089844 368.4713134765625 143.5594024658203 368.4713134765625 C 144.0927276611328 368.4713134765625 144.45606994628906 368.5613098144531 144.64939880371094 368.7413024902344 C 144.8427276611328 368.927978515625 144.93939208984375 369.23797607421875 144.93939208984375 369.67132568359375 C 144.93939208984375 370.1046447753906 144.86605834960938 370.4046630859375 144.7194061279297 370.5713195800781 C 144.57273864746094 370.73797607421875 144.31607055664062 370.8213195800781 143.94940185546875 370.8213195800781 M 142.02940368652344 382.9413146972656 L 142.2993927001953 377.351318359375 C 142.2993927001953 376.024658203125 142.1460723876953 375.1213073730469 141.8394012451172 374.6413269042969 C 141.74606323242188 374.4813232421875 141.6327362060547 374.361328125 141.49940490722656 374.28131103515625 C 141.40606689453125 374.24798583984375 141.35940551757812 374.1813049316406 141.35940551757812 374.0813293457031 C 141.35940551757812 373.7946472167969 141.7660675048828 373.5146484375 142.57940673828125 373.2413024902344 C 143.39939880371094 372.9746398925781 143.99606323242188 372.84130859375 144.36940002441406 372.84130859375 C 144.74940490722656 372.84130859375 144.94606018066406 372.9346618652344 144.9593963623047 373.1213073730469 C 144.9593963623047 373.4413146972656 144.9160614013672 374.351318359375 144.82940673828125 375.851318359375 C 144.74273681640625 377.3446350097656 144.69940185546875 378.9146423339844 144.69940185546875 380.5613098144531 C 144.69940185546875 382.21466064453125 144.79273986816406 383.2413024902344 144.97940063476562 383.6413269042969 C 145.03273010253906 383.7213134765625 145.0594024658203 383.80133056640625 145.0594024658203 383.8813171386719 C 145.0594024658203 384.0879821777344 144.7527313232422 384.1913146972656 144.139404296875 384.1913146972656 C 143.53273010253906 384.1913146972656 142.90939331054688 384.03131103515625 142.26939392089844 383.7113037109375 C 142.10940551757812 383.6313171386719 142.02940368652344 383.3746643066406 142.02940368652344 382.9413146972656 ZM 149.05914306640625 370.8213195800781 L 148.48915100097656 370.80133056640625 C 148.05581665039062 370.80133056640625 147.77581787109375 370.9046630859375 147.64915466308594 371.111328125 C 147.61581420898438 371.1579895019531 147.57582092285156 371.1813049316406 147.52914428710938 371.1813049316406 C 147.32247924804688 371.1813049316406 147.21914672851562 370.82464599609375 147.21914672851562 370.111328125 C 147.21914672851562 369.3979797363281 147.32582092285156 368.947998046875 147.53915405273438 368.7613220214844 C 147.7524871826172 368.5679931640625 148.13247680664062 368.4713134765625 148.6791534423828 368.4713134765625 C 149.22581481933594 368.4713134765625 149.58914184570312 368.5613098144531 149.76914978027344 368.7413024902344 C 149.955810546875 368.927978515625 150.0491485595703 369.23797607421875 150.0491485595703 369.67132568359375 C 150.0491485595703 370.1046447753906 149.97581481933594 370.4046630859375 149.8291473388672 370.5713195800781 C 149.68914794921875 370.73797607421875 149.43247985839844 370.8213195800781 149.05914306640625 370.8213195800781 M 150.09915161132812 373.101318359375 C 149.95248413085938 374.3946533203125 149.879150390625 375.9146423339844 149.879150390625 377.66131591796875 C 149.81248474121094 380.0146484375 149.77914428710938 382.0379943847656 149.77914428710938 383.7313232421875 L 149.80914306640625 385.6313171386719 C 149.80914306640625 386.46466064453125 149.68582153320312 387.2346496582031 149.43914794921875 387.9413146972656 C 149.18582153320312 388.6546630859375 148.88914489746094 389.2346496582031 148.5491485595703 389.6813049316406 C 148.20248413085938 390.1346435546875 147.68247985839844 390.5279846191406 146.98915100097656 390.861328125 C 146.28915405273438 391.19464111328125 145.47581481933594 391.361328125 144.5491485595703 391.361328125 C 144.26248168945312 391.361328125 144.11915588378906 391.25799560546875 144.11915588378906 391.05133056640625 C 144.11915588378906 390.93798828125 144.24581909179688 390.8279724121094 144.4991455078125 390.7213134765625 C 145.61915588378906 390.18798828125 146.4158172607422 389.0013122558594 146.88914489746094 387.16131591796875 C 147.36248779296875 385.3213195800781 147.59915161132812 383.0813293457031 147.59915161132812 380.4413146972656 C 147.59915161132812 376.7346496582031 147.31248474121094 374.70465087890625 146.73915100097656 374.351318359375 C 146.5791473388672 374.23797607421875 146.4991455078125 374.1413269042969 146.4991455078125 374.0613098144531 C 146.4991455078125 373.7879943847656 146.9124755859375 373.5146484375 147.73915100097656 373.2413024902344 C 148.57247924804688 372.9746398925781 149.1724853515625 372.84130859375 149.53915405273438 372.84130859375 C 149.9124755859375 372.84130859375 150.09915161132812 372.927978515625 150.09915161132812 373.101318359375 ZM 154.00489807128906 370.8213195800781 L 153.4348907470703 370.80133056640625 C 153.00155639648438 370.80133056640625 152.7215576171875 370.9046630859375 152.5948944091797 371.111328125 C 152.5615692138672 371.1579895019531 152.5215606689453 371.1813049316406 152.4748992919922 371.1813049316406 C 152.26156616210938 371.1813049316406 152.15489196777344 370.82464599609375 152.15489196777344 370.111328125 C 152.15489196777344 369.3979797363281 152.264892578125 368.947998046875 152.48489379882812 368.7613220214844 C 152.69822692871094 368.5679931640625 153.07489013671875 368.4713134765625 153.61489868164062 368.4713134765625 C 154.14822387695312 368.4713134765625 154.51156616210938 368.5613098144531 154.70489501953125 368.7413024902344 C 154.89822387695312 368.927978515625 154.99488830566406 369.23797607421875 154.99488830566406 369.67132568359375 C 154.99488830566406 370.1046447753906 154.92156982421875 370.4046630859375 154.77490234375 370.5713195800781 C 154.62823486328125 370.73797607421875 154.37156677246094 370.8213195800781 154.00489807128906 370.8213195800781 M 152.08489990234375 382.9413146972656 L 152.35488891601562 377.351318359375 C 152.35488891601562 376.024658203125 152.20156860351562 375.1213073730469 151.8948974609375 374.6413269042969 C 151.8015594482422 374.4813232421875 151.688232421875 374.361328125 151.55490112304688 374.28131103515625 C 151.46156311035156 374.24798583984375 151.41490173339844 374.1813049316406 151.41490173339844 374.0813293457031 C 151.41490173339844 373.7946472167969 151.82156372070312 373.5146484375 152.63490295410156 373.2413024902344 C 153.45489501953125 372.9746398925781 154.0515594482422 372.84130859375 154.42489624023438 372.84130859375 C 154.80490112304688 372.84130859375 155.00155639648438 372.9346618652344 155.014892578125 373.1213073730469 C 155.014892578125 373.4413146972656 154.9715576171875 374.351318359375 154.88490295410156 375.851318359375 C 154.79823303222656 377.3446350097656 154.75489807128906 378.9146423339844 154.75489807128906 380.5613098144531 C 154.75489807128906 382.21466064453125 154.84823608398438 383.2413024902344 155.03489685058594 383.6413269042969 C 155.08822631835938 383.7213134765625 155.11489868164062 383.80133056640625 155.11489868164062 383.8813171386719 C 155.11489868164062 384.0879821777344 154.8082275390625 384.1913146972656 154.1949005126953 384.1913146972656 C 153.58822631835938 384.1913146972656 152.9648895263672 384.03131103515625 152.32489013671875 383.7113037109375 C 152.16490173339844 383.6313171386719 152.08489990234375 383.3746643066406 152.08489990234375 382.9413146972656 ZM 156.57464599609375 383.8313293457031 C 156.86131286621094 382.1046447753906 157.004638671875 380.03131103515625 157.004638671875 377.611328125 C 157.004638671875 375.197998046875 156.9346466064453 373.6313171386719 156.79464721679688 372.91131591796875 C 156.79464721679688 372.70465087890625 157.03463745117188 372.601318359375 157.5146484375 372.601318359375 C 158.24798583984375 372.601318359375 158.73464965820312 372.8813171386719 158.97463989257812 373.4413146972656 C 158.98797607421875 373.48797607421875 159.02798461914062 373.5113220214844 159.0946502685547 373.5113220214844 C 159.16131591796875 373.5113220214844 159.20797729492188 373.4946594238281 159.23464965820312 373.4613037109375 C 159.73464965820312 372.947998046875 160.504638671875 372.6913146972656 161.54464721679688 372.6913146972656 C 162.5846405029297 372.6913146972656 163.40797424316406 372.95465087890625 164.0146484375 373.4813232421875 C 164.62130737304688 374.0146484375 164.92465209960938 374.7846374511719 164.92465209960938 375.79132080078125 C 164.92465209960938 376.3979797363281 164.87464904785156 377.2613220214844 164.77464294433594 378.3813171386719 C 164.66798400878906 379.5013122558594 164.61463928222656 380.33465576171875 164.61463928222656 380.8813171386719 C 164.61463928222656 382.1746520996094 164.83131408691406 383.10797119140625 165.2646484375 383.6813049316406 C 165.32464599609375 383.7613220214844 165.35464477539062 383.84130859375 165.35464477539062 383.92132568359375 C 165.35464477539062 384.1346435546875 165.13131713867188 384.2413024902344 164.6846466064453 384.2413024902344 C 162.70465087890625 384.2413024902344 161.7146453857422 383.361328125 161.7146453857422 381.601318359375 C 161.7146453857422 380.927978515625 161.86463928222656 379.9913024902344 162.16464233398438 378.79132080078125 C 162.4713134765625 377.59130859375 162.62464904785156 376.677978515625 162.62464904785156 376.05133056640625 C 162.62464904785156 374.77130126953125 162.0946502685547 374.1313171386719 161.03463745117188 374.1313171386719 C 160.52798461914062 374.1313171386719 160.1413116455078 374.2846374511719 159.87464904785156 374.59130859375 C 159.60797119140625 374.8913269042969 159.4613037109375 375.23797607421875 159.4346466064453 375.6313171386719 C 159.40130615234375 376.024658203125 159.3846435546875 376.7646484375 159.3846435546875 377.851318359375 C 159.3846435546875 379.5179748535156 159.44131469726562 380.9679870605469 159.5546417236328 382.2013244628906 L 159.5946502685547 382.7213134765625 C 159.5946502685547 383.1746520996094 159.3046417236328 383.524658203125 158.72463989257812 383.77130126953125 C 158.1379852294922 384.0179748535156 157.6346435546875 384.1413269042969 157.2146453857422 384.1413269042969 C 156.78797912597656 384.1413269042969 156.57464599609375 384.0379943847656 156.57464599609375 383.8313293457031 ZM 167.73016357421875 373.9813232421875 C 167.73016357421875 373.9813232421875 167.82015991210938 373.8913269042969 168.0001678466797 373.7113037109375 C 168.17349243164062 373.53131103515625 168.55015563964844 373.31463623046875 169.13015747070312 373.0613098144531 C 169.7034912109375 372.81463623046875 170.2534942626953 372.6913146972656 170.78016662597656 372.6913146972656 C 171.30682373046875 372.6913146972656 171.84349060058594 372.8113098144531 172.39016723632812 373.05133056640625 C 172.4568328857422 373.05133056640625 172.5034942626953 373.0346374511719 172.53016662597656 373.0013122558594 C 172.95016479492188 372.5879821777344 173.56016540527344 372.3813171386719 174.36016845703125 372.3813171386719 C 174.55349731445312 372.3813171386719 174.65016174316406 372.4679870605469 174.65016174316406 372.6413269042969 C 174.65016174316406 372.66131591796875 174.6334991455078 372.7346496582031 174.60015869140625 372.861328125 C 174.56683349609375 372.98797607421875 174.52682495117188 373.1746520996094 174.48016357421875 373.42132568359375 C 174.43348693847656 373.6746520996094 174.39349365234375 373.9746398925781 174.36016845703125 374.3213195800781 C 174.246826171875 375.2346496582031 174.18682861328125 376.2446594238281 174.18016052246094 377.351318359375 C 174.17349243164062 378.4513244628906 174.170166015625 379.5546569824219 174.170166015625 380.66131591796875 L 174.2401580810547 385.7013244628906 C 174.2401580810547 387.31463623046875 173.823486328125 388.6579895019531 172.9901580810547 389.7313232421875 C 172.65682983398438 390.1646423339844 172.15016174316406 390.54132080078125 171.47015380859375 390.861328125 C 170.7901611328125 391.1813049316406 169.99349975585938 391.34130859375 169.0801544189453 391.34130859375 C 168.8734893798828 391.21466064453125 168.77015686035156 391.0879821777344 168.77015686035156 390.9613037109375 C 168.77015686035156 390.8279724121094 168.85682678222656 390.7213134765625 169.03016662597656 390.6413269042969 C 170.03683471679688 390.1813049316406 170.75682067871094 389.0813293457031 171.19015502929688 387.34130859375 C 171.6234893798828 385.60797119140625 171.8401641845703 382.9746398925781 171.8401641845703 379.4413146972656 L 171.7901611328125 376.0813293457031 L 171.72015380859375 374.4413146972656 C 171.72015380859375 374.30133056640625 171.496826171875 374.197998046875 171.05015563964844 374.1313171386719 C 170.47015380859375 374.1313171386719 169.98348999023438 374.3213195800781 169.5901641845703 374.7013244628906 C 169.2034912109375 375.07464599609375 168.93682861328125 375.56463623046875 168.7901611328125 376.17132568359375 C 168.53683471679688 377.15130615234375 168.41015625 377.9946594238281 168.41015625 378.7013244628906 C 168.41015625 379.4146423339844 168.52349853515625 380.0446472167969 168.7501678466797 380.59130859375 C 168.98348999023438 381.1313171386719 169.39016723632812 381.40130615234375 169.97015380859375 381.40130615234375 C 170.13015747070312 381.40130615234375 170.27682495117188 381.3713073730469 170.41015625 381.3113098144531 C 170.54348754882812 381.2446594238281 170.63682556152344 381.2113037109375 170.69015502929688 381.2113037109375 C 170.85015869140625 381.2113037109375 170.93016052246094 381.3713073730469 170.93016052246094 381.6913146972656 C 170.93016052246094 382.0113220214844 170.9034881591797 382.27130126953125 170.85015869140625 382.4713134765625 C 170.80349731445312 382.67132568359375 170.7101593017578 382.8913269042969 170.57015991210938 383.1313171386719 C 170.2501678466797 383.6579895019531 169.6234893798828 383.92132568359375 168.69015502929688 383.92132568359375 C 167.76348876953125 383.92132568359375 167.10015869140625 383.5879821777344 166.70016479492188 382.92132568359375 C 166.28683471679688 382.2279968261719 166.0468292236328 381.611328125 165.98016357421875 381.0713195800781 C 165.88682556152344 380.2513122558594 165.8401641845703 379.71466064453125 165.8401641845703 379.4613037109375 C 165.8401641845703 379.2079772949219 165.84349060058594 379.004638671875 165.85015869140625 378.851318359375 C 165.85682678222656 378.697998046875 165.89682006835938 378.3946533203125 165.97015380859375 377.9413146972656 C 166.04348754882812 377.4813232421875 166.14016723632812 377.0479736328125 166.26016235351562 376.6413269042969 C 166.38015747070312 376.2346496582031 166.56683349609375 375.7779846191406 166.82015991210938 375.27130126953125 C 167.0801544189453 374.77130126953125 167.3834991455078 374.34130859375 167.73016357421875 373.9813232421875 Z" transform="matrix(5.996164321899414, 0, 0, 5.996164321899414, -702.3204345703125, -2183.534912109375)" style="fill: rgb(18, 51, 11); white-space: pre; color: rgb(18, 51, 11); fill-opacity: 1; stroke: rgb(71, 74, 34);"/></svg>